# File created by Blade
# Date/Time:  Tue Apr 07 20:29:34 2015
# Frame Rate: 120.000 fps
#------------------------------------------------------
:FULLY-SPECIFIED
:DEGREES
3443
root 0.094615 32.792774 -2.929703 10.102574 -0.905619 -1.163459
Spine -14.302119 -3.027779 -1.864503
Head 7.681068 -2.837021 -0.065549
LeftShoulder -20.706046 36.996326 23.151786
LeftArm 51.222992 -57.103289 -49.826083
LeftForeArm 13.876646 -0.000000 -2.452578
LeftHand 2.799208 -0.000000 2.206945
LeftHandThumb1 -26.253704 0.000000 33.147579
RightShoulder -8.836664 5.684283 -31.262264
RightArm 11.215938 10.777114 34.230206
RightForeArm -18.791026 -0.000000 2.602229
RightHand -1.200118 -0.000000 7.727740
RightHandThumb1 -24.326973 -0.000000 -32.862282
LeftUpLeg -2.291551 -4.728890 0.480716
LeftLeg -3.913225 -0.000000 0.000000
LeftFoot -7.195755 9.220888 -16.562581
LeftToeBase -5.543643 -0.000000 0.000000
RightUpLeg -3.391742 -0.009121 2.020182
RightLeg -5.464994 -0.000000 0.000000
RightFoot -5.887881 -5.639481 6.695991
RightToeBase 0.742275 -0.000000 -0.000000
3444
root 0.084532 32.791024 -2.930868 10.087373 -0.935204 -1.144487
Spine -14.277782 -2.992424 -1.909386
Head 7.646877 -2.835312 -0.027768
LeftShoulder -20.642433 36.945162 23.212378
LeftArm 51.206680 -57.093957 -49.878421
LeftForeArm 13.950357 -0.000000 -2.440435
LeftHand 2.854530 -0.000000 2.114705
LeftHandThumb1 -26.253704 0.000000 33.147579
RightShoulder -8.802632 5.690795 -31.237580
RightArm 11.248464 10.711486 34.242914
RightForeArm -18.647121 -0.000000 2.576529
RightHand -1.180401 0.000000 7.605013
RightHandThumb1 -24.326973 -0.000000 -32.862282
LeftUpLeg -2.280953 -4.724954 0.467289
LeftLeg -3.904314 -0.000000 0.000000
LeftFoot -7.203419 9.269889 -16.524937
LeftToeBase -5.626707 -0.000000 0.000000
RightUpLeg -3.358447 0.041215 2.007926
RightLeg -5.507078 -0.000000 0.000000
RightFoot -5.885620 -5.654735 6.693368
RightToeBase 0.736380 -0.000000 -0.000000
3445
root 0.075543 32.789777 -2.933372 10.081128 -0.948636 -1.128686
Spine -14.252211 -2.979013 -1.947458
Head 7.588678 -2.845391 0.028927
LeftShoulder -20.648143 36.958664 23.204889
LeftArm 51.324245 -57.110672 -49.987759
LeftForeArm 13.941283 -0.000000 -2.460799
LeftHand 2.869048 -0.000000 2.115328
LeftHandThumb1 -26.253704 0.000000 33.147579
RightShoulder -8.780791 5.704895 -31.228288
RightArm 11.282682 10.755806 34.285425
RightForeArm -18.646090 -0.000000 2.547061
RightHand -1.142615 -0.000000 7.640687
RightHandThumb1 -24.326973 -0.000000 -32.862282
LeftUpLeg -2.285361 -4.722179 0.458073
LeftLeg -3.892353 -0.000000 0.000000
LeftFoot -7.217607 9.315243 -16.484774
LeftToeBase -5.619243 -0.000000 0.000000
RightUpLeg -3.344142 0.042215 2.005009
RightLeg -5.529938 -0.000000 0.000000
RightFoot -5.891606 -5.639739 6.720491
RightToeBase 0.773798 -0.000000 -0.000000
3446
root 0.069197 32.789228 -2.934866 10.076234 -0.973120 -1.094514
Spine -14.233539 -2.960594 -1.998001
Head 7.538674 -2.842581 0.070661
LeftShoulder -20.647847 36.974805 23.197888
LeftArm 51.413809 -57.150831 -50.075134
LeftForeArm 14.010009 -0.000000 -2.466604
LeftHand 2.867901 -0.000000 2.014831
LeftHandThumb1 -26.253704 0.000000 33.147579
RightShoulder -8.759355 5.718597 -31.217579
RightArm 11.328501 10.772717 34.308452
RightForeArm -18.657571 -0.000000 2.522651
RightHand -1.217096 0.000000 7.727665
RightHandThumb1 -24.326973 -0.000000 -32.862282
LeftUpLeg -2.297154 -4.562063 0.422055
LeftLeg -3.860790 -0.000000 0.000000
LeftFoot -7.182072 9.174600 -16.444709
LeftToeBase -5.638467 -0.000000 0.000000
RightUpLeg -3.324038 0.032863 1.978755
RightLeg -5.569192 -0.000000 0.000000
RightFoot -5.884460 -5.599946 6.724349
RightToeBase 0.797969 -0.000000 -0.000000
3447
root 0.060317 32.789188 -2.938089 10.087883 -0.990279 -1.083220
Spine -14.233253 -2.935085 -2.026206
Head 7.501327 -2.847245 0.098478
LeftShoulder -20.611483 36.946916 23.219969
LeftArm 51.351090 -57.142744 -50.010213
LeftForeArm 13.978705 -0.000000 -2.479905
LeftHand 2.882589 -0.000000 2.012280
LeftHandThumb1 -26.253704 0.000000 33.147579
RightShoulder -8.741606 5.753343 -31.220782
RightArm 11.327063 10.783639 34.319623
RightForeArm -18.643129 0.000000 2.534333
RightHand -1.184019 -0.000000 7.644201
RightHandThumb1 -24.326973 -0.000000 -32.862282
LeftUpLeg -2.311950 -4.511401 0.414575
LeftLeg -3.862198 -0.000000 0.000000
LeftFoot -7.170868 9.182528 -16.392909
LeftToeBase -5.656101 -0.000000 0.000000
RightUpLeg -3.336110 0.005990 1.986091
RightLeg -5.580634 -0.000000 0.000000
RightFoot -5.884120 -5.563016 6.736178
RightToeBase 0.846245 -0.000000 -0.000000
3448
root 0.051520 32.789529 -2.941283 10.104472 -1.007179 -1.072134
Spine -14.235598 -2.918111 -2.050687
Head 7.455781 -2.866335 0.127841
LeftShoulder -20.592317 36.941106 23.233564
LeftArm 51.277533 -57.140782 -49.934214
LeftForeArm 13.952230 -0.000000 -2.466244
LeftHand 2.841676 -0.000000 2.012235
LeftHandThumb1 -26.253704 0.000000 33.147579
RightShoulder -8.732245 5.774478 -31.227903
RightArm 11.354260 10.808087 34.330311
RightForeArm -18.689286 -0.000000 2.539225
RightHand -1.069607 -0.000000 7.672149
RightHandThumb1 -24.326973 -0.000000 -32.862282
LeftUpLeg -2.312743 -4.534343 0.414170
LeftLeg -3.902455 -0.000000 0.000000
LeftFoot -7.163660 9.257977 -16.414724
LeftToeBase -5.601452 -0.000000 0.000000
RightUpLeg -3.356690 -0.031229 1.995934
RightLeg -5.583869 -0.000000 0.000000
RightFoot -5.882066 -5.522276 6.717750
RightToeBase 0.881386 -0.000000 -0.000000
3449
root 0.040716 32.790205 -2.944499 10.119465 -1.021865 -1.079321
Spine -14.231902 -2.895501 -2.064935
Head 7.403574 -2.871771 0.180012
LeftShoulder -20.576594 36.957750 23.239510
LeftArm 51.207492 -57.162524 -49.839915
LeftForeArm 13.954092 -0.000000 -2.451237
LeftHand 2.770603 -0.000000 1.973250
LeftHandThumb1 -26.253704 0.000000 33.147579
RightShoulder -8.739466 5.801252 -31.233150
RightArm 11.378672 10.803072 34.330563
RightForeArm -18.643842 0.000000 2.562980
RightHand -1.025000 -0.000000 7.748299
RightHandThumb1 -24.326973 -0.000000 -32.862282
LeftUpLeg -2.311043 -4.591168 0.437512
LeftLeg -3.942497 -0.000000 0.000000
LeftFoot -7.186923 9.374415 -16.437596
LeftToeBase -5.330130 -0.000000 0.000000
RightUpLeg -3.379843 -0.082103 2.027579
RightLeg -5.579445 -0.000000 0.000000
RightFoot -5.872254 -5.468495 6.707443
RightToeBase 0.895364 -0.000000 -0.000000
3450
root 0.030934 32.791657 -2.947586 10.140572 -1.034161 -1.092183
Spine -14.233145 -2.881481 -2.063870
Head 7.353450 -2.886808 0.215691
LeftShoulder -20.494441 36.865298 23.354217
LeftArm 50.920112 -57.110056 -49.665204
LeftForeArm 13.902316 0.000000 -2.386763
LeftHand 2.727560 -0.000000 2.027045
LeftHandThumb1 -26.253704 0.000000 33.147579
RightShoulder -8.739006 5.833029 -31.233750
RightArm 11.379170 10.802001 34.295251
RightForeArm -18.654429 -0.000000 2.630165
RightHand -1.028958 -0.000000 7.741161
RightHandThumb1 -24.326973 -0.000000 -32.862282
LeftUpLeg -2.317234 -4.552037 0.463184
LeftLeg -3.978811 -0.000000 0.000000
LeftFoot -7.161527 9.380616 -16.392934
LeftToeBase -5.530345 -0.000000 0.000000
RightUpLeg -3.403548 -0.113808 2.064100
RightLeg -5.585498 -0.000000 0.000000
RightFoot -5.859873 -5.442839 6.710726
RightToeBase 0.941877 -0.000000 -0.000000
3451
root 0.023727 32.793029 -2.951034 10.158951 -1.033396 -1.085661
Spine -14.231122 -2.884597 -2.074059
Head 7.301332 -2.904061 0.239906
LeftShoulder -20.481689 36.879030 23.369941
LeftArm 50.763408 -57.088454 -49.524379
LeftForeArm 13.758542 -0.000000 -2.336798
LeftHand 2.716986 -0.000000 2.103132
LeftHandThumb1 -26.253704 0.000000 33.147579
RightShoulder -8.735112 5.837039 -31.232448
RightArm 11.389758 10.772802 34.240366
RightForeArm -18.648679 -0.000000 2.693846
RightHand -0.977170 -0.000000 7.659545
RightHandThumb1 -24.326973 -0.000000 -32.862282
LeftUpLeg -2.335328 -4.495731 0.464988
LeftLeg -3.996050 -0.000000 0.000000
LeftFoot -7.125066 9.353360 -16.416330
LeftToeBase -5.441536 -0.000000 0.000000
RightUpLeg -3.437275 -0.203902 2.082444
RightLeg -5.567388 -0.000000 0.000000
RightFoot -5.850331 -5.371059 6.686972
RightToeBase 0.911426 -0.000000 -0.000000
3452
root 0.016544 32.794336 -2.955338 10.188619 -1.034221 -1.087072
Spine -14.236431 -2.901143 -2.070288
Head 7.243586 -2.904680 0.272985
LeftShoulder -20.578304 37.010234 23.251644
LeftArm 50.921468 -57.189733 -49.570829
LeftForeArm 13.762135 -0.000000 -2.342918
LeftHand 2.638933 -0.000000 2.131380
LeftHandThumb1 -26.253704 0.000000 33.147579
RightShoulder -8.731776 5.853866 -31.238901
RightArm 11.413880 10.715608 34.187008
RightForeArm -18.524360 -0.000000 2.763629
RightHand -0.983835 -0.000000 7.830787
RightHandThumb1 -24.326973 -0.000000 -32.862282
LeftUpLeg -2.365474 -4.443413 0.476177
LeftLeg -4.010115 -0.000000 0.000000
LeftFoot -7.114508 9.329714 -16.418410
LeftToeBase -5.321054 -0.000000 0.000000
RightUpLeg -3.475642 -0.232921 2.101814
RightLeg -5.565330 -0.000000 0.000000
RightFoot -5.845702 -5.349801 6.681472
RightToeBase 0.968303 -0.000000 -0.000000
3453
root 0.010157 32.795939 -2.960946 10.234143 -1.019673 -1.098066
Spine -14.259571 -2.930246 -2.040632
Head 7.195507 -2.907898 0.272850
LeftShoulder -20.527653 36.868763 23.339383
LeftArm 50.610761 -57.124372 -49.362113
LeftForeArm 13.801725 -0.000000 -2.323139
LeftHand 2.823092 -0.000000 2.294137
LeftHandThumb1 -26.253704 0.000000 33.147579
RightShoulder -8.708143 5.878157 -31.266592
RightArm 11.395234 10.784084 34.168185
RightForeArm -18.535830 -0.000000 2.873452
RightHand -1.057607 0.000000 7.666284
RightHandThumb1 -24.326973 -0.000000 -32.862282
LeftUpLeg -2.420756 -4.401040 0.498244
LeftLeg -4.011345 -0.000000 0.000000
LeftFoot -7.094373 9.310355 -16.397662
LeftToeBase -5.329279 -0.000000 0.000000
RightUpLeg -3.535862 -0.268167 2.131146
RightLeg -5.554108 -0.000000 0.000000
RightFoot -5.838438 -5.324813 6.716237
RightToeBase 1.005628 -0.000000 -0.000000
3454
root 0.004255 32.797868 -2.966299 10.262274 -1.001714 -1.098033
Spine -14.262681 -2.942509 -2.033554
Head 7.159314 -2.952943 0.290346
LeftShoulder -20.452270 36.760683 23.423434
LeftArm 50.420486 -57.127812 -49.281225
LeftForeArm 13.805418 -0.000000 -2.245570
LeftHand 2.762977 -0.000000 2.451232
LeftHandThumb1 -26.253704 0.000000 33.147579
RightShoulder -8.701362 5.891376 -31.274346
RightArm 11.369650 10.810864 34.115878
RightForeArm -18.534146 -0.000000 2.966156
RightHand -1.018603 0.000000 7.559774
RightHandThumb1 -24.326973 -0.000000 -32.862282
LeftUpLeg -2.463675 -4.383208 0.514720
LeftLeg -4.001044 -0.000000 0.000000
LeftFoot -7.087603 9.274289 -16.428034
LeftToeBase -5.267277 -0.000000 0.000000
RightUpLeg -3.576103 -0.287883 2.146875
RightLeg -5.544489 -0.000000 0.000000
RightFoot -5.830893 -5.324866 6.717229
RightToeBase 1.040302 -0.000000 -0.000000
